<svg width="21" height="22" viewBox="0 0 21 22" fill="none" xmlns="http://www.w3.org/2000/svg">
<path fill-rule="evenodd" clip-rule="evenodd" d="M11.6982 1.5854L8.80182 6.06466L7.84212 5.4441L10.7385 0.964844L11.6982 1.5854ZM6.77104 2.27251L6.53918 7.6015L5.3974 7.55183L5.62926 2.22284L6.77104 2.27251ZM16.2955 3.48496L11.5317 5.88375L11.0177 4.86301L15.7815 2.46421L16.2955 3.48496ZM2.86886 5.35794L5.36416 10.0716L4.3541 10.6063L1.8588 5.89264L2.86886 5.35794ZM19.3006 7.44884L13.9779 7.10795L14.0509 5.96743L19.3737 6.30832L19.3006 7.44884ZM19.8869 12.389L15.4678 9.40241L16.1078 8.45552L20.5269 11.4421L19.8869 12.389ZM1.06387 9.99324L5.60077 12.7981L4.9998 13.7702L0.462891 10.9653L1.06387 9.99324ZM18.3546 16.3241L15.6688 11.7158L16.6562 11.1403L19.342 15.7486L18.3546 16.3241ZM14.581 19.5653L14.596 14.2325L15.7389 14.2358L15.7238 19.5685L14.581 19.5653ZM1.852 14.9049L7.18349 15.029L7.1569 16.1715L1.82541 16.0474L1.852 14.9049ZM9.68723 20.4533L12.3981 15.86L13.3823 16.4409L10.6715 21.0342L9.68723 20.4533ZM5.01642 18.7428L9.6774 16.1523L10.2326 17.1512L5.57162 19.7418L5.01642 18.7428Z" fill="#CAD1DC"/>
</svg>
