<svg width="104" height="104" viewBox="0 0 104 104" fill="none" xmlns="http://www.w3.org/2000/svg">
<g clip-path="url(#clip0_796_1469)">
<g clip-path="url(#clip1_796_1469)">
<path d="M52.3628 68.3292C61.1803 68.3292 68.3282 61.1812 68.3282 52.3638C68.3282 43.5464 61.1803 36.3984 52.3628 36.3984C43.5454 36.3984 36.3975 43.5464 36.3975 52.3638C36.3975 61.1812 43.5454 68.3292 52.3628 68.3292Z" stroke="#191B1E" stroke-width="2.88889" stroke-miterlimit="10"/>
<path d="M12.1439 83.9718L29.1942 65.8765C28.3851 64.4723 28.4395 64.5702 27.6303 63.166L3.43555 68.8845" stroke="#191B1E" stroke-width="2.88889" stroke-miterlimit="10"/>
<path d="M1.43652 57.2114L25.5624 51.2099L25.7111 48.0857L2.26745 39.8164" stroke="#191B1E" stroke-width="2.88889" stroke-miterlimit="10"/>
<path d="M6.90137 28.9081L30.443 36.9017C31.3828 35.5809 31.3175 35.6716 32.2573 34.3545L17.0031 14.7207" stroke="#191B1E" stroke-width="2.88889" stroke-miterlimit="10"/>
<path d="M26.7959 8.05721L42.2787 27.5096C43.7809 26.9072 43.6793 26.9508 45.1815 26.3484L42.9645 1.58398" stroke="#191B1E" stroke-width="2.88889" stroke-miterlimit="10"/>
<path d="M54.8076 1.26562L57.3149 26.0011C58.9042 26.3058 58.7953 26.2877 60.3846 26.5925L71.9051 4.5603" stroke="#191B1E" stroke-width="2.88889" stroke-miterlimit="10"/>
<path d="M82.0431 10.6992L70.7803 32.8657C71.9523 33.9833 71.8725 33.9071 73.0445 35.0246L94.6485 22.7204" stroke="#191B1E" stroke-width="2.88889" stroke-miterlimit="10"/>
<path d="M99.8554 33.3594L78.3965 45.9176L79.1331 48.9583L103.959 50.2863" stroke="#191B1E" stroke-width="2.88889" stroke-miterlimit="10"/>
<path d="M102.588 62.0553L77.7469 61.0176C77.2171 62.5488 77.2534 62.4436 76.7236 63.9748L96.8908 78.5142" stroke="#191B1E" stroke-width="2.88889" stroke-miterlimit="10"/>
<path d="M89.374 87.6727L69.0363 73.3691L66.5762 75.3031L75.6801 98.4384" stroke="#191B1E" stroke-width="2.88889" stroke-miterlimit="10"/>
<path d="M64.4092 102.077L55.0332 79.0508C53.4221 79.2032 53.531 79.1959 51.9199 79.3483L47.0723 103.735" stroke="#191B1E" stroke-width="2.88889" stroke-miterlimit="10"/>
<path d="M35.6166 100.697L40.1776 76.2555L37.3982 74.8223L20.1338 92.7144" stroke="#191B1E" stroke-width="2.88889" stroke-miterlimit="10"/>
</g>
</g>
<defs>
<clipPath id="clip0_796_1469">
<rect width="104" height="104" fill="white"/>
</clipPath>
<clipPath id="clip1_796_1469">
<rect width="103.278" height="103.278" fill="white" transform="translate(0.722656 0.722656)"/>
</clipPath>
</defs>
</svg>
