<svg width="20" height="20" viewBox="0 0 20 20" fill="none" xmlns="http://www.w3.org/2000/svg">
<path fill-rule="evenodd" clip-rule="evenodd" d="M11.1994 0.618579L8.31233 5.08355L7.35569 4.46497L10.2428 0L11.1994 0.618579ZM6.28803 1.3035L6.05691 6.61549L4.91877 6.56597L5.14989 1.25398L6.28803 1.3035ZM15.7821 2.51208L11.0335 4.90322L10.5212 3.88573L15.2697 1.49458L15.7821 2.51208ZM2.39829 4.37908L4.88563 9.07767L3.8788 9.61067L1.39146 4.91208L2.39829 4.37908ZM18.7776 6.46332L13.4719 6.12351L13.5447 4.98663L18.8504 5.32643L18.7776 6.46332ZM19.3621 11.3877L14.9571 8.41065L15.595 7.46678L20 10.4438L19.3621 11.3877ZM0.599058 8.9996L5.1215 11.7955L4.52244 12.7645L0 9.96859L0.599058 8.9996ZM17.8347 15.3103L15.1575 10.7166L16.1417 10.143L18.8189 14.7366L17.8347 15.3103ZM14.073 18.5411L14.088 13.2254L15.2272 13.2286L15.2123 18.5443L14.073 18.5411ZM1.38467 13.8956L6.69916 14.0193L6.67266 15.1582L1.35817 15.0345L1.38467 13.8956ZM9.19492 19.4263L11.8971 14.8476L12.8782 15.4267L10.176 20.0053L9.19492 19.4263ZM4.539 17.7213L9.18512 15.139L9.73855 16.1347L5.09244 18.717L4.539 17.7213Z" fill="#777F89"/>
</svg>
