<svg width="16" height="16" viewBox="0 0 16 16" fill="none" xmlns="http://www.w3.org/2000/svg">
<path fill-rule="evenodd" clip-rule="evenodd" d="M11.3334 3.01118C10.3467 2.35189 9.18669 2 8 2C6.4087 2 4.88258 2.63214 3.75736 3.75736C2.63214 4.88258 2 6.4087 2 8C2 9.18669 2.3519 10.3467 3.01119 11.3334C3.67047 12.3201 4.60755 13.0892 5.7039 13.5433C6.80026 13.9974 8.00666 14.1162 9.17054 13.8847C10.3344 13.6532 11.4035 13.0818 12.2426 12.2426C13.0818 11.4035 13.6532 10.3344 13.8847 9.17054C14.1162 8.00666 13.9974 6.80026 13.5433 5.7039C13.0892 4.60754 12.3201 3.67047 11.3334 3.01118ZM4.11101 2.17971C5.26216 1.41054 6.61553 1 8 1C9.85652 1 11.637 1.7375 12.9497 3.05025C14.2625 4.36301 15 6.14348 15 8C15 9.38447 14.5895 10.7378 13.8203 11.889C13.0511 13.0401 11.9579 13.9373 10.6788 14.4672C9.3997 14.997 7.99224 15.1356 6.63437 14.8655C5.2765 14.5954 4.02922 13.9287 3.05026 12.9497C2.07129 11.9708 1.4046 10.7235 1.13451 9.36563C0.86441 8.00776 1.00303 6.6003 1.53285 5.32122C2.06266 4.04213 2.95987 2.94888 4.11101 2.17971ZM5.14645 11.3536C5.24022 11.4474 5.3674 11.5001 5.5 11.5001C5.57764 11.5001 5.6542 11.482 5.72365 11.4473L11.7237 8.44731C11.8067 8.40579 11.8766 8.34195 11.9254 8.26296C11.9743 8.18396 12.0001 8.09293 12.0001 8.00006C12.0001 7.90719 11.9743 7.81615 11.9254 7.73716C11.8766 7.65816 11.8067 7.59433 11.7237 7.55281L5.72365 4.55281C5.64742 4.51468 5.5627 4.49668 5.47755 4.5005C5.3924 4.50433 5.30964 4.52986 5.23713 4.57468C5.16463 4.61949 5.10478 4.68209 5.06328 4.75655C5.02177 4.831 4.99999 4.91482 5 5.00006V11.0001C5 11.1327 5.05268 11.2598 5.14645 11.3536ZM10.3821 8.00006L6 10.1911V5.80901L10.3821 8.00006Z" fill="#777F89"/>
</svg>
