<svg width="17" height="16" viewBox="0 0 17 16" fill="none" xmlns="http://www.w3.org/2000/svg">
<path d="M13.5 9C13.5 9.98891 13.2068 10.9556 12.6574 11.7779C12.1079 12.6001 11.3271 13.241 10.4134 13.6194C9.49979 13.9978 8.49446 14.0969 7.52455 13.9039C6.55465 13.711 5.66373 13.2348 4.96447 12.5355C4.26521 11.8363 3.789 10.9454 3.59608 9.97545C3.40315 9.00555 3.50217 8.00021 3.88061 7.08658C4.25904 6.17295 4.89991 5.39206 5.72215 4.84265C6.5444 4.29324 7.5111 4 8.5 4H11.5911L9.79885 5.7927L10.5 6.5L13.5 3.5L10.5 0.5L9.79885 1.207L11.5926 3H8.5C7.31331 3 6.15328 3.35189 5.16658 4.01118C4.17989 4.67047 3.41085 5.60754 2.95673 6.7039C2.5026 7.80026 2.38378 9.00666 2.61529 10.1705C2.8468 11.3344 3.41825 12.4035 4.25736 13.2426C5.09648 14.0818 6.16558 14.6532 7.32946 14.8847C8.49335 15.1162 9.69975 14.9974 10.7961 14.5433C11.8925 14.0892 12.8295 13.3201 13.4888 12.3334C14.1481 11.3467 14.5 10.1867 14.5 9H13.5Z" fill="#777F89"/>
</svg>
