<svg width="32" height="32" viewBox="0 0 32 32" fill="none" xmlns="http://www.w3.org/2000/svg">
<path d="M4.67 28L11.06 16L18.36 22.49C18.5886 22.6931 18.8607 22.841 19.1554 22.9225C19.4501 23.004 19.7596 23.0168 20.06 22.96C20.3632 22.9032 20.6491 22.7771 20.8954 22.5915C21.1418 22.4059 21.3418 22.1658 21.48 21.89L27 10.9L25.18 10L19.69 21L12.39 14.51C12.1672 14.3028 11.9001 14.1492 11.609 14.0608C11.3178 13.9724 11.0104 13.9516 10.71 14C10.4134 14.0492 10.1316 14.1647 9.88579 14.3378C9.63994 14.511 9.43629 14.7373 9.29 15L4 25V2H2V28C2 28.5304 2.21071 29.0391 2.58579 29.4142C2.96086 29.7893 3.46957 30 4 30H30V28H4.67Z" fill="#777F89"/>
</svg>
