<svg width="25" height="25" viewBox="0 0 25 25" fill="none" xmlns="http://www.w3.org/2000/svg">
<g clip-path="url(#clip0_1096_2187)">
<path d="M17.5036 4.89844C18.0497 4.89798 18.5903 5.00654 19.0939 5.21775C19.5974 5.42896 20.0538 5.73857 20.4361 6.12844C21.2239 6.92822 21.6655 8.00581 21.6655 9.12844C21.6655 10.2511 21.2239 11.3287 20.4361 12.1284L12.6661 19.9959L4.89609 12.1284C4.10828 11.3287 3.66668 10.2511 3.66668 9.12844C3.66668 8.00581 4.10828 6.92822 4.89609 6.12844C5.27866 5.73885 5.73502 5.4294 6.23852 5.21816C6.74203 5.00692 7.28257 4.89812 7.82859 4.89812C8.37461 4.89812 8.91516 5.00692 9.41866 5.21816C9.92216 5.4294 10.3785 5.73885 10.7611 6.12844L12.6661 8.07844L14.5636 6.14344C14.9448 5.74893 15.4016 5.43534 15.9068 5.22142C16.4119 5.0075 16.955 4.89765 17.5036 4.89844ZM17.5036 3.39844C16.7578 3.39781 16.0194 3.54608 15.3317 3.83457C14.6439 4.12305 14.0207 4.54594 13.4986 5.07844L12.6661 5.91844L11.8336 5.07844C11.3108 4.5469 10.6874 4.12475 9.99983 3.83658C9.31223 3.54842 8.57414 3.40001 7.82859 3.40001C7.08304 3.40001 6.34496 3.54842 5.65735 3.83658C4.96974 4.12475 4.34638 4.5469 3.82359 5.07844C2.76 6.16116 2.16406 7.61821 2.16406 9.13594C2.16406 10.6537 2.76 12.1107 3.82359 13.1934L12.6661 22.1484L21.5086 13.1934C22.5722 12.1107 23.1681 10.6537 23.1681 9.13594C23.1681 7.61821 22.5722 6.16116 21.5086 5.07844C20.9859 4.54662 20.3626 4.12417 19.675 3.83574C18.9874 3.5473 18.2492 3.39864 17.5036 3.39844Z" fill="#777F89"/>
</g>
<defs>
<clipPath id="clip0_1096_2187">
<rect width="24" height="24" fill="white" transform="translate(0.666016 0.398438)"/>
</clipPath>
</defs>
</svg>
