<svg width="24" height="26" viewBox="0 0 24 26" fill="none" xmlns="http://www.w3.org/2000/svg">
<path fill-rule="evenodd" clip-rule="evenodd" d="M12 1C12.6443 1 13.1667 1.52104 13.1667 2.16378V5.48887C13.1667 6.13161 12.6443 6.65265 12 6.65265C11.3557 6.65265 10.8333 6.13161 10.8333 5.48887V2.16378C10.8333 1.52104 11.3557 1 12 1ZM19.5 11.8065H22.8333C23.4767 11.8065 24 12.3286 24 12.9703C24 13.6121 23.4767 14.1341 22.8333 14.1341H22.1033C22.1033 14.1475 22.1037 14.1606 22.1041 14.1735V14.1736C22.1048 14.199 22.1055 14.224 22.1033 14.2505C21.5367 19.9763 17.2233 24.4419 12 24.4419C6.77667 24.4419 2.46333 19.9763 1.89667 14.2505C1.89446 14.224 1.89518 14.199 1.89592 14.1735C1.89629 14.1606 1.89667 14.1475 1.89667 14.1341H1.16667C0.523333 14.1341 0 13.6121 0 12.9703C0 12.3286 0.523333 11.8065 1.16667 11.8065H4.5C5.14333 11.8065 5.66667 12.3286 5.66667 12.9703C5.66667 13.6121 5.14333 14.1341 4.5 14.1341H4.23C4.72333 18.6296 8.01667 22.1143 12 22.1143C15.9833 22.1143 19.28 18.6296 19.77 14.1341H19.5C18.8567 14.1341 18.3333 13.6121 18.3333 12.9703C18.3333 12.3286 18.8567 11.8065 19.5 11.8065ZM2.03334 8.57455L4.92667 10.2404C5.48334 10.563 6.19667 10.3701 6.52 9.81481C6.84334 9.2562 6.65001 8.54463 6.09334 8.22542L3.2 6.55955C2.64334 6.23702 1.93 6.42987 1.60667 6.98516C1.28334 7.54378 1.47667 8.25534 2.03334 8.57455ZM19.0733 10.2404C18.5167 10.5629 17.8033 10.3734 17.48 9.8148C17.1567 9.25951 17.35 8.54795 17.9067 8.22541L20.8 6.55954C21.3567 6.23701 22.07 6.42654 22.3933 6.98515C22.7167 7.54044 22.5233 8.25201 21.9667 8.57455L19.0733 10.2404ZM15.1633 7.50387C15.72 7.8264 16.4333 7.63355 16.7567 7.07826L18.4267 4.19208C18.75 3.6368 18.5567 2.92523 18 2.60269C17.4433 2.28016 16.73 2.47302 16.4067 3.0283L14.7367 5.91448C14.4133 6.46977 14.6067 7.18134 15.1633 7.50387ZM8.83667 7.50387C8.28 7.8264 7.56667 7.63355 7.24333 7.07826L5.57333 4.19208C5.25 3.6368 5.44333 2.92523 6 2.60269C6.55667 2.28016 7.27 2.47302 7.59333 3.0283L9.26333 5.91448C9.58667 6.46977 9.39333 7.18134 8.83667 7.50387Z" fill="white"/>
</svg>
