<svg width="57" height="56" viewBox="0 0 57 56" fill="none" xmlns="http://www.w3.org/2000/svg">
<path fill-rule="evenodd" clip-rule="evenodd" d="M16.2915 8.62563C19.5733 5.34374 24.0245 3.5 28.6658 3.5C30.964 3.5 33.2396 3.95265 35.3628 4.83211C37.486 5.71157 39.4152 7.00061 41.0402 8.62563C42.6652 10.2507 43.9543 12.1798 44.8337 14.303C45.7132 16.4262 46.1658 18.7019 46.1658 21C46.2828 23.5406 45.7949 26.0727 44.7422 28.388C43.6895 30.7032 42.1022 32.7355 40.1108 34.3175C38.3433 35.9625 37.4158 36.89 37.4158 38.5H33.9158C33.9158 35.3079 35.784 33.5632 37.6222 31.8464C37.6585 31.8126 37.6946 31.7788 37.7308 31.745C39.3696 30.4944 40.6766 28.8607 41.537 26.9873C42.3974 25.1139 42.785 23.0581 42.6658 21C42.6658 17.287 41.1908 13.726 38.5653 11.1005C35.9398 8.475 32.3788 7 28.6658 7C24.9528 7 21.3918 8.475 18.7663 11.1005C16.1408 13.726 14.6658 17.287 14.6658 21C14.5446 23.0566 14.9295 25.1115 15.7868 26.9847C16.6441 28.858 17.9477 30.4925 19.5833 31.745C21.4733 33.4775 23.4158 35.28 23.4158 38.5H19.9158C19.9158 36.89 18.9708 35.9625 17.2208 34.335C15.228 32.7503 13.64 30.715 12.5873 28.3967C11.5347 26.0784 11.0475 23.5433 11.1658 21C11.1658 16.3587 13.0096 11.9075 16.2915 8.62563ZM37.4158 42H19.9158V45.5H37.4158V42ZM33.9158 49H23.4158V52.5H33.9158V49Z" fill="#CAD1DC"/>
</svg>
