<svg width="32" height="32" viewBox="0 0 32 32" fill="none" xmlns="http://www.w3.org/2000/svg">
<g clip-path="url(#clip0_263_2)">
<path d="M26 21V20C26 19.7348 26.1054 19.4804 26.2929 19.2929C26.4804 19.1054 26.7348 19 27 19C27.2652 19 27.5196 19.1054 27.7071 19.2929C27.8947 19.4804 28 19.7348 28 20V30H30V20C29.9991 19.2046 29.6828 18.4421 29.1204 17.8796C28.5579 17.3172 27.7954 17.0009 27 17C26.4831 17.0033 25.9761 17.1416 25.5292 17.4014C25.1244 16.7462 24.4797 16.2749 23.7325 16.0882C22.9853 15.9014 22.1947 16.0138 21.5292 16.4014C21.2603 15.9732 20.8873 15.6201 20.445 15.3751C20.0028 15.13 19.5056 15.001 19 15C18.6585 15.0034 18.3202 15.0658 18 15.1846V10C18 9.20435 17.6839 8.44129 17.1213 7.87868C16.5587 7.31607 15.7957 7 15 7C14.2044 7 13.4413 7.31607 12.8787 7.87868C12.3161 8.44129 12 9.20435 12 10V21.1045L9.76511 19.5752L9.76431 19.5762C9.15355 19.1314 8.39737 18.9335 7.64699 19.0221C6.89661 19.1107 6.20733 19.4793 5.71698 20.0541C5.22664 20.629 4.97136 21.3678 5.0022 22.1228C5.03303 22.8777 5.34771 23.5932 5.88331 24.1262L12.3223 30L13.6702 28.522L7.29151 22.7036C7.19892 22.6113 7.12549 22.5017 7.07546 22.3809C7.02543 22.2602 6.99979 22.1307 7.00001 22C7.00005 21.8143 7.05177 21.6323 7.14938 21.4743C7.247 21.3163 7.38665 21.1886 7.55272 21.1055C7.71878 21.0224 7.9047 20.9871 8.08967 21.0037C8.27463 21.0202 8.45134 21.0879 8.60001 21.1992L14 24.8955V10C14 9.73478 14.1054 9.48043 14.2929 9.29289C14.4804 9.10536 14.7348 9 15 9C15.2652 9 15.5196 9.10536 15.7071 9.29289C15.8947 9.48043 16 9.73478 16 10V21H18V18C18 17.7348 18.1054 17.4804 18.2929 17.2929C18.4804 17.1054 18.7348 17 19 17C19.2652 17 19.5196 17.1054 19.7071 17.2929C19.8947 17.4804 20 17.7348 20 18V21H22V19C22 18.7348 22.1054 18.4804 22.2929 18.2929C22.4804 18.1054 22.7348 18 23 18C23.2652 18 23.5196 18.1054 23.7071 18.2929C23.8947 18.4804 24 18.7348 24 19V21H26Z" fill="#777F89"/>
<path d="M28 12H22V10H28V4H4V10H8V12H4C3.46974 11.9994 2.96135 11.7886 2.5864 11.4136C2.21145 11.0386 2.00056 10.5303 2 10V4C2.00056 3.46974 2.21145 2.96135 2.5864 2.5864C2.96135 2.21145 3.46974 2.00056 4 2H28C28.5303 2.00056 29.0386 2.21145 29.4136 2.5864C29.7886 2.96135 29.9994 3.46974 30 4V10C29.9994 10.5303 29.7886 11.0386 29.4136 11.4136C29.0386 11.7886 28.5303 11.9994 28 12Z" fill="#777F89"/>
</g>
<defs>
<clipPath id="clip0_263_2">
<rect width="32" height="32" fill="white"/>
</clipPath>
</defs>
</svg>
