<svg width="32" height="33" viewBox="0 0 32 33" fill="none" xmlns="http://www.w3.org/2000/svg">
<path d="M26.21 4.39847H5.79C5.32472 4.39567 4.87685 4.57517 4.54228 4.89852C4.20772 5.22187 4.01306 5.66337 4 6.12847V26.5985C4.0105 27.0644 4.20436 27.5074 4.53948 27.8313C4.87461 28.1552 5.32396 28.3339 5.79 28.3285H26.21C26.676 28.3339 27.1254 28.1552 27.4605 27.8313C27.7956 27.5074 27.9895 27.0644 28 26.5985V6.12847C27.9869 5.66337 27.7923 5.22187 27.4577 4.89852C27.1232 4.57517 26.6753 4.39567 26.21 4.39847V4.39847ZM11.11 24.8085H7.59V13.3985H11.11V24.8085ZM9.39 11.8085C8.84956 11.8086 8.33048 11.5974 7.94369 11.22C7.55689 10.8425 7.33305 10.3288 7.32 9.78847C7.31021 9.514 7.35706 9.24045 7.45762 8.98488C7.55819 8.72931 7.71031 8.49719 7.90452 8.30299C8.09872 8.10878 8.33084 7.95666 8.58641 7.85609C8.84198 7.75553 9.11553 7.70868 9.39 7.71847C9.91284 7.75488 10.4024 7.98825 10.7599 8.37151C11.1174 8.75477 11.3162 9.25936 11.3162 9.78347C11.3162 10.3076 11.1174 10.8122 10.7599 11.1954C10.4024 11.5787 9.91284 11.8121 9.39 11.8485V11.8085ZM24.48 24.7385H21V19.1585C21 17.8285 21 16.0985 19.14 16.0985C17.28 16.0985 17 17.5585 17 19.0285V24.6785H13.44V13.3985H16.76V14.8985H16.83C17.1703 14.3075 17.6665 13.8214 18.2643 13.4934C18.8622 13.1654 19.5387 13.008 20.22 13.0385C23.81 13.0385 24.48 15.4385 24.48 18.4885V24.7385Z" fill="#777F89"/>
</svg>
