<svg width="32" height="35" viewBox="0 0 32 35" fill="none" xmlns="http://www.w3.org/2000/svg">
<path fill-rule="evenodd" clip-rule="evenodd" d="M16 1C16.8591 1 17.5556 1.69472 17.5556 2.55171V6.98516C17.5556 7.84214 16.8591 8.53686 16 8.53686C15.1409 8.53686 14.4444 7.84214 14.4444 6.98516V2.55171C14.4444 1.69472 15.1409 1 16 1ZM26 15.4087H30.4444C31.3022 15.4087 32 16.1048 32 16.9604C32 17.8161 31.3022 18.5121 30.4444 18.5121H29.4711C29.4711 18.53 29.4716 18.5474 29.4721 18.5647C29.4731 18.5986 29.4741 18.632 29.4711 18.6673C28.7156 26.3017 22.9644 32.2558 16 32.2558C9.03556 32.2558 3.28444 26.3017 2.52889 18.6673C2.52594 18.632 2.5269 18.5986 2.52789 18.5647C2.52839 18.5474 2.52889 18.53 2.52889 18.5121H1.55556C0.697778 18.5121 0 17.8161 0 16.9604C0 16.1048 0.697778 15.4087 1.55556 15.4087H6C6.85778 15.4087 7.55556 16.1048 7.55556 16.9604C7.55556 17.8161 6.85778 18.5121 6 18.5121H5.64C6.29778 24.5061 10.6889 29.1524 16 29.1524C21.3111 29.1524 25.7067 24.5061 26.36 18.5121H26C25.1422 18.5121 24.4444 17.8161 24.4444 16.9604C24.4444 16.1048 25.1422 15.4087 26 15.4087ZM2.71112 11.0994L6.5689 13.3206C7.31112 13.7506 8.26223 13.4935 8.69334 12.7531C9.12445 12.0083 8.86667 11.0595 8.12445 10.6339L4.26667 8.41273C3.52445 7.98269 2.57334 8.23983 2.14223 8.98021C1.71112 9.72503 1.9689 10.6738 2.71112 11.0994ZM25.4311 13.3206C24.6889 13.7506 23.7378 13.4979 23.3067 12.7531C22.8755 12.0127 23.1333 11.0639 23.8755 10.6339L27.7333 8.41272C28.4755 7.98268 29.4267 8.23538 29.8578 8.9802C30.2889 9.72059 30.0311 10.6693 29.2889 11.0994L25.4311 13.3206ZM20.2178 9.67182C20.96 10.1019 21.9111 9.84473 22.3422 9.10434L24.5689 5.25611C25 4.51572 24.7422 3.56697 24 3.13692C23.2578 2.70688 22.3067 2.96402 21.8756 3.7044L19.6489 7.55264C19.2178 8.29302 19.4756 9.24178 20.2178 9.67182ZM11.7822 9.67182C11.04 10.1019 10.0889 9.84473 9.65778 9.10434L7.43111 5.25611C7 4.51572 7.25778 3.56697 8 3.13692C8.74222 2.70688 9.69333 2.96402 10.1244 3.7044L12.3511 7.55264C12.7822 8.29302 12.5244 9.24178 11.7822 9.67182Z" fill="white"/>
</svg>
