<svg width="32" height="32" viewBox="0 0 32 32" fill="none" xmlns="http://www.w3.org/2000/svg">
<g clip-path="url(#clip0_3_238)">
<path d="M29.4141 24L12 6.5859C11.6191 6.22218 11.1127 6.01923 10.586 6.01923C10.0593 6.01923 9.55284 6.22218 9.17191 6.5859L6.58591 9.1719C6.21146 9.54724 6.00116 10.0558 6.00116 10.586C6.00116 11.1161 6.21146 11.6247 6.58591 12L23.999 29.4141C24.3744 29.7885 24.8829 29.9987 25.4131 29.9987C25.9432 29.9987 26.4517 29.7885 26.8271 29.4141L29.4141 26.8276C29.5999 26.6419 29.7472 26.4215 29.8478 26.1789C29.9483 25.9362 30 25.6762 30 25.4136C30 25.1509 29.9483 24.8909 29.8478 24.6482C29.7472 24.4056 29.5999 24.1857 29.4141 24ZM8.00001 10.5859L10.5859 8L15.5859 13L12.9993 15.5869L7.99931 10.5869L8.00001 10.5859ZM25.4131 28L14.4131 17.001L17 14.4141L28 25.4141L25.4131 28Z" fill="#777F89"/>
<path d="M4.00004 14L2.00006 16L4.00004 18L6.00002 16L4.00004 14Z" fill="#777F89"/>
<path d="M16 2.00002L14.0001 4L16 5.99998L18 4L16 2.00002Z" fill="#777F89"/>
<path d="M3.99998 2.00002L2 4L3.99998 5.99998L5.99996 4L3.99998 2.00002Z" fill="#777F89"/>
</g>
<defs>
<clipPath id="clip0_3_238">
<rect width="32" height="32" fill="white"/>
</clipPath>
</defs>
</svg>
