<svg width="25" height="25" viewBox="0 0 25 25" fill="none" xmlns="http://www.w3.org/2000/svg">
<path fill-rule="evenodd" clip-rule="evenodd" d="M7.70116 20.4288L12.333 22.8984L16.9649 20.4286C18.2854 19.7262 19.3897 18.6773 20.1593 17.3947C20.9289 16.1121 21.3346 14.6442 21.333 13.1484V3.39844C21.3326 3.00075 21.1744 2.61947 20.8932 2.33826C20.612 2.05705 20.2307 1.89887 19.833 1.89844H4.83301C4.43532 1.89887 4.05404 2.05705 3.77283 2.33826C3.49162 2.61947 3.33345 3.00075 3.33301 3.39844V13.1484C3.33138 14.6442 3.73713 16.1122 4.50669 17.3948C5.27626 18.6775 6.3806 19.7263 7.70116 20.4288ZM4.83301 13.1484V3.39844H19.833V13.1484C19.8343 14.3723 19.5023 15.5734 18.8726 16.6228C18.2429 17.6723 17.3393 18.5304 16.2588 19.1052L12.333 21.1984L8.40721 19.1052C7.3267 18.5304 6.42311 17.6723 5.79342 16.6228C5.16373 15.5734 4.83171 14.3723 4.83301 13.1484ZM16.833 7.89844H7.83301V9.39844H16.833V7.89844ZM16.833 12.3984H7.83301V13.8984H16.833V12.3984Z" fill="#777F89"/>
</svg>
