<svg width="57" height="56" viewBox="0 0 57 56" fill="none" xmlns="http://www.w3.org/2000/svg">
<path fill-rule="evenodd" clip-rule="evenodd" d="M17.5254 46.7374L28.333 52.5L39.1407 46.7371C42.2219 45.098 44.7987 42.6508 46.5943 39.658C48.39 36.6653 49.3368 33.2401 49.333 29.75V7C49.332 6.07206 48.9629 5.18241 48.3068 4.52625C47.6506 3.8701 46.761 3.50102 45.833 3.5H10.833C9.90507 3.50102 9.01543 3.8701 8.35927 4.52625C7.70311 5.18241 7.33404 6.07206 7.33302 7V29.75C7.32922 33.2402 8.27595 36.6655 10.0716 39.6582C11.8673 42.651 14.444 45.0983 17.5254 46.7374ZM10.833 29.75V7H45.833V29.75C45.836 32.6057 45.0613 35.4082 43.5921 37.8569C42.1228 40.3056 40.0144 42.308 37.4932 43.649L28.333 48.5333L19.1728 43.649C16.6516 42.308 14.5433 40.3056 13.074 37.8569C11.6047 35.4082 10.83 32.6057 10.833 29.75ZM38.833 17.5H17.833V21H38.833V17.5ZM38.833 28H17.833V31.5H38.833V28Z" fill="#CAD1DC"/>
</svg>
