<svg width="32" height="32" viewBox="0 0 32 32" fill="none" xmlns="http://www.w3.org/2000/svg">
<g clip-path="url(#clip0_3_255)">
<path d="M11 18L12.41 19.41L15 16.83V29H17V16.83L19.59 19.41L21 18L16 13L11 18Z" fill="#777F89"/>
<path d="M23.5 22.0001H23V20.0001H23.5C24.6935 20.0478 25.857 19.6195 26.7347 18.8093C27.6124 17.9992 28.1322 16.8735 28.18 15.6801C28.2277 14.4866 27.7994 13.323 26.9892 12.4454C26.1791 11.5677 25.0535 11.0478 23.86 11.0001H23L22.9 10.1801C22.6781 8.49651 21.8518 6.951 20.5751 5.83144C19.2983 4.71188 17.6581 4.09461 15.96 4.09461C14.2619 4.09461 12.6217 4.71188 11.3449 5.83144C10.0681 6.951 9.24184 8.49651 9.01998 10.1801L8.99998 11.0001H8.13998C6.94651 11.0478 5.82088 11.5677 5.01072 12.4454C4.20056 13.323 3.77224 14.4866 3.81998 15.6801C3.86772 16.8735 4.38761 17.9992 5.26528 18.8093C6.14295 19.6195 7.30651 20.0478 8.49998 20.0001H8.99998V22.0001H8.49998C6.89639 21.9899 5.35315 21.3873 4.16697 20.3082C2.98079 19.229 2.2354 17.7494 2.07411 16.1539C1.91282 14.5584 2.34702 12.9596 3.29323 11.6649C4.23944 10.3702 5.63086 9.47094 7.19998 9.14006C7.63169 7.12658 8.74082 5.32203 10.3423 4.02753C11.9438 2.73302 13.9407 2.02686 16 2.02686C18.0592 2.02686 20.0562 2.73302 21.6577 4.02753C23.2591 5.32203 24.3683 7.12658 24.8 9.14006C26.3691 9.47094 27.7605 10.3702 28.7067 11.6649C29.6529 12.9596 30.0871 14.5584 29.9258 16.1539C29.7646 17.7494 29.0192 19.229 27.833 20.3082C26.6468 21.3873 25.1036 21.9899 23.5 22.0001Z" fill="#777F89"/>
</g>
<defs>
<clipPath id="clip0_3_255">
<rect width="32" height="32" fill="white"/>
</clipPath>
</defs>
</svg>
