<svg width="32" height="32" viewBox="0 0 32 32" fill="none" xmlns="http://www.w3.org/2000/svg">
<path fill-rule="evenodd" clip-rule="evenodd" d="M17 2.59L27.71 13.29C27.8037 13.383 27.8781 13.4936 27.9289 13.6154C27.9797 13.7373 28.0058 13.868 28.0058 14C28.0058 14.132 27.9797 14.2627 27.9289 14.3846C27.8781 14.5064 27.8037 14.617 27.71 14.71L25.71 16.71L24.29 15.29L25.59 14L15.59 4H8V6H6V4C6 3.46957 6.21071 2.96086 6.58579 2.58579C6.96086 2.21071 7.46957 2 8 2H15.59C16.1196 2.00223 16.6266 2.21441 17 2.59ZM16 30C15.8684 30.0008 15.7379 29.9755 15.6161 29.9258C15.4943 29.876 15.3834 29.8027 15.29 29.71L4.59 19C4.21441 18.6266 4.00223 18.1196 4 17.59V10C4 9.46957 4.21071 8.96086 4.58579 8.58579C4.96086 8.21071 5.46957 8 6 8H13.59C14.1196 8.00223 14.6266 8.21441 15 8.59L25.71 19.29C25.8037 19.383 25.8781 19.4936 25.9289 19.6154C25.9797 19.7373 26.0058 19.868 26.0058 20C26.0058 20.132 25.9797 20.2627 25.9289 20.3846C25.8781 20.5064 25.8037 20.617 25.71 20.71L16.71 29.71C16.6166 29.8027 16.5057 29.876 16.3839 29.9258C16.2621 29.9755 16.1316 30.0008 16 30ZM6 10V17.59L16 27.59L23.59 20L13.59 10H6ZM10 16C11.1046 16 12 15.1046 12 14C12 12.8954 11.1046 12 10 12C8.89543 12 8 12.8954 8 14C8 15.1046 8.89543 16 10 16Z" fill="#777F89"/>
</svg>
