<svg width="56" height="56" viewBox="0 0 56 56" fill="none" xmlns="http://www.w3.org/2000/svg">
<path fill-rule="evenodd" clip-rule="evenodd" d="M50.0253 3.5L52.5 5.97467L45.1684 13.3061C47.842 14.8077 50.307 16.6538 52.5 18.7971V18.8006L50.0244 21.276C47.8199 19.127 45.3112 17.314 42.5789 15.8953L37.3345 21.14C40.2164 22.3245 42.8453 24.0488 45.08 26.2201L42.6076 28.6939C40.3421 26.5015 37.6118 24.8478 34.6194 23.8556L28.6912 29.7841C32.048 29.9469 35.233 31.3167 37.66 33.6413L35.1858 36.1151C33.8111 34.806 32.1038 33.8986 30.2496 33.4916C28.3954 33.0845 26.4651 33.1934 24.6684 33.8063L5.97467 52.5L3.5 50.0253L50.0253 3.5ZM31.5 43.75C31.5 45.683 29.933 47.25 28 47.25C26.067 47.25 24.5 45.683 24.5 43.75C24.5 41.817 26.067 40.25 28 40.25C29.933 40.25 31.5 41.817 31.5 43.75ZM25.69 22.8858L29.2626 19.3132C29.1304 19.3062 28.9987 19.2974 28.8671 19.2885C28.5797 19.2693 28.2925 19.25 28 19.25C21.6049 19.2486 15.4648 21.7576 10.9008 26.2372L13.3746 28.711C16.716 25.4513 21.0505 23.4011 25.69 22.8858ZM35.4067 13.1694C32.9834 12.5684 30.4968 12.2597 28 12.25C19.7488 12.2473 11.829 15.4968 5.95753 21.294L3.5 18.8365V18.7971C7.99013 14.3724 13.5943 11.2457 19.7179 9.74874C25.8416 8.25184 32.2562 8.44056 38.2812 10.2949L35.4067 13.1694Z" fill="#CAD1DC"/>
</svg>
