<svg width="24" height="25" viewBox="0 0 24 25" fill="none" xmlns="http://www.w3.org/2000/svg">
<path fill-rule="evenodd" clip-rule="evenodd" d="M21.4394 1.89844L22.5 2.95901L19.3579 6.10106C20.5037 6.7446 21.5601 7.53579 22.5 8.45434V8.45584L21.4391 9.51671C20.4942 8.59571 19.4191 7.81872 18.2481 7.21069L16.0005 9.45844C17.2356 9.96608 18.3623 10.7051 19.32 11.6356L18.2604 12.6958C17.2895 11.7562 16.1193 11.0475 14.8369 10.6223L12.2963 13.1631C13.7349 13.2328 15.0999 13.8199 16.14 14.8161L15.0797 15.8763C14.4905 15.3153 13.7588 14.9264 12.9641 14.752C12.1694 14.5775 11.3422 14.6242 10.5722 14.8869L2.56058 22.8984L1.5 21.8379L21.4394 1.89844ZM13.5 19.1484C13.5 19.9769 12.8284 20.6484 12 20.6484C11.1716 20.6484 10.5 19.9769 10.5 19.1484C10.5 18.32 11.1716 17.6484 12 17.6484C12.8284 17.6484 13.5 18.32 13.5 19.1484ZM11.0098 10.2066L12.541 8.67551C12.4843 8.67252 12.4279 8.66874 12.3715 8.66495C12.2483 8.65669 12.1252 8.64844 11.9998 8.64844C9.25909 8.64783 6.62761 9.72313 4.6716 11.643L5.7318 12.7032C7.16383 11.3061 9.02147 10.4275 11.0098 10.2066ZM15.1743 6.04248C14.1357 5.78489 13.07 5.6526 12 5.64843C8.46378 5.64729 5.06959 7.03992 2.55323 9.52443L1.5 8.47121V8.45433C3.42434 6.55802 5.82614 5.218 8.45055 4.57647C11.075 3.93494 13.8241 4.01582 16.4063 4.81053L15.1743 6.04248Z" fill="#777F89"/>
</svg>
